<?xml version="1.0" standalone="no"?>
<!DOCTYPE svg PUBLIC "-//W3C//DTD SVG 20010904//EN"
 "http://www.w3.org/TR/2001/REC-SVG-20010904/DTD/svg10.dtd">
<svg version="1.0" xmlns="http://www.w3.org/2000/svg"
 width="88.000000pt" height="88.000000pt" viewBox="0 0 88.000000 88.000000"
 preserveAspectRatio="xMidYMid meet">

<g transform="translate(0.000000,88.000000) scale(0.100000,-0.100000)"
fill="#000000" stroke="none">
<path d="M256 410 c-40 -44 -44 -61 -20 -84 27 -28 60 -20 78 18 9 19 16 40
16 48 -1 7 -7 0 -14 -17 -10 -25 -13 -27 -19 -11 -5 13 -14 17 -32 14 -20 -4
-23 -3 -14 8 6 8 20 14 30 14 10 0 23 8 28 18 9 15 12 15 22 2 9 -13 10 -12 5
3 -3 10 -6 21 -6 23 0 2 -8 4 -19 4 -10 0 -35 -18 -55 -40z"/>
<path d="M530 413 c0 -51 32 -103 64 -103 55 0 58 56 5 109 -44 44 -69 42 -69
-6z m100 -57 c0 -5 -7 -3 -15 4 -19 16 -45 6 -45 -17 0 -15 -2 -15 -9 -4 -6 8
-6 22 -1 31 4 8 6 29 3 45 l-4 30 35 -40 c20 -22 36 -44 36 -49z"/>
<path d="M380 337 c-26 -9 -36 -18 -38 -38 -3 -21 4 -30 41 -49 39 -21 48 -22
75 -11 16 7 40 23 53 37 22 23 22 24 4 44 -14 16 -26 19 -54 14 -27 -4 -32 -3
-21 5 13 9 12 11 -5 10 -11 0 -36 -5 -55 -12z"/>
<path d="M589 228 c-15 -35 -51 -49 -132 -56 -44 -3 -66 -9 -64 -16 6 -17 132
-9 173 10 41 20 64 58 46 76 -8 8 -14 4 -23 -14z"/>
</g>
</svg>
